<?xml version="1.0" encoding="UTF-8" standalone="no"?>
<!-- Created with Inkscape (http://www.inkscape.org/) -->

<svg
   xmlns:dc="http://purl.org/dc/elements/1.1/"
   xmlns:cc="http://creativecommons.org/ns#"
   xmlns:rdf="http://www.w3.org/1999/02/22-rdf-syntax-ns#"
   xmlns:svg="http://www.w3.org/2000/svg"
   xmlns="http://www.w3.org/2000/svg"
   xmlns:sodipodi="http://sodipodi.sourceforge.net/DTD/sodipodi-0.dtd"
   xmlns:inkscape="http://www.inkscape.org/namespaces/inkscape"
   id="svg2"
   version="1.1"
   inkscape:version="0.91 r13725"
   xml:space="preserve"
   width="100.6375"
   height="37.462502"
   viewBox="0 0 100.6375 37.462502"
   sodipodi:docname="ibm_logo.svg"><metadata
     id="metadata8"><rdf:RDF><cc:Work
         rdf:about=""><dc:format>image/svg+xml</dc:format><dc:type
           rdf:resource="http://purl.org/dc/dcmitype/StillImage" /><dc:title></dc:title></cc:Work></rdf:RDF></metadata><defs
     id="defs6" /><sodipodi:namedview
     pagecolor="#ffffff"
     bordercolor="#666666"
     borderopacity="1"
     objecttolerance="10"
     gridtolerance="10"
     guidetolerance="10"
     inkscape:pageopacity="0"
     inkscape:pageshadow="2"
     inkscape:window-width="1855"
     inkscape:window-height="1056"
     id="namedview4"
     showgrid="false"
     inkscape:snap-bbox="true"
     inkscape:zoom="14.587008"
     inkscape:cx="32.260634"
     inkscape:cy="12.147867"
     inkscape:window-x="65"
     inkscape:window-y="24"
     inkscape:window-maximized="1"
     inkscape:current-layer="g10" /><g
     id="g10"
     inkscape:groupmode="layer"
     inkscape:label="ink_ext_XXXXXX"
     transform="matrix(1.25,0,0,-1.25,0,37.4625)"><g
       id="g12"
       transform="scale(0.1,0.1)"><path
         d="m 777.305,14.0391 c 0,7.6406 6.211,13.8867 13.886,13.8867 7.649,0 13.829,-6.2461 13.829,-13.8867 0,-7.71488 -6.18,-13.9570687 -13.829,-13.9570687 -7.675,0 -13.886,6.2421887 -13.886,13.9570687 z m 25.515,0 c 0,6.7617 -4.898,12.0507 -11.629,12.0507 -6.757,0 -11.687,-5.289 -11.687,-12.0507 0,-6.82816 4.93,-12.12113 11.687,-12.12113 6.731,0 11.629,5.29297 11.629,12.12113 z m -4.715,-7.78519 -2.265,0 -4.422,7.16409 -3.48,0 0,-7.16409 -1.891,0 0,15.53519 6.754,0 c 4.094,0 5.492,-1.5391 5.492,-4.1133 0,-3.0469 -2.121,-4.1836 -4.867,-4.2578 l 4.679,-7.16409 z m -7.273,8.66799 c 2.195,0 5.406,-0.3672 5.406,2.7929 0,2.4219 -1.972,2.7149 -3.875,2.7149 l -4.425,0 0,-5.5078 2.894,0"
         style="fill:#4d7ec9;fill-opacity:1;fill-rule:nonzero;stroke:none"
         id="path14"
         inkscape:connector-curvature="0" /><path
         d="m 0,281.191 146.18,0 0,18.5547 -146.18,0 0,-18.5547 z"
         style="fill:#4d7ec9;fill-opacity:1;fill-rule:nonzero;stroke:none"
         id="path16"
         inkscape:connector-curvature="0" /><path
         d="m 0,241.168 146.18,0 0,18.5547 -146.18,0 0,-18.5547 z"
         style="fill:#4d7ec9;fill-opacity:1;fill-rule:nonzero;stroke:none"
         id="path18"
         inkscape:connector-curvature="0" /><path
         d="m 0,41.0547 146.18,0 0,18.5547 -146.18,0 0,-18.5547 z"
         style="fill:#4d7ec9;fill-opacity:1;fill-rule:nonzero;stroke:none"
         id="path20"
         inkscape:connector-curvature="0" /><path
         d="m 41.7656,81.0781 62.6523,0 0,18.5547 -62.6523,0 0,-18.5547 z"
         style="fill:#4d7ec9;fill-opacity:1;fill-rule:nonzero;stroke:none"
         id="path22"
         inkscape:connector-curvature="0" /><path
         d="m 41.7656,121.102 62.6523,0 0,18.5508 -62.6523,0 0,-18.5508 z"
         style="fill:#4d7ec9;fill-opacity:1;fill-rule:nonzero;stroke:none"
         id="path24"
         inkscape:connector-curvature="0" /><path
         d="m 41.7656,161.125 62.6523,0 0,18.5508 -62.6523,0 0,-18.5508 z"
         style="fill:#4d7ec9;fill-opacity:1;fill-rule:nonzero;stroke:none"
         id="path26"
         inkscape:connector-curvature="0" /><path
         d="m 41.7656,201.148 62.6523,0 0,18.5508 -62.6523,0 0,-18.5508 z"
         style="fill:#4d7ec9;fill-opacity:1;fill-rule:nonzero;stroke:none"
         id="path28"
         inkscape:connector-curvature="0" /><path
         d="m 0,1.03516 146.18,0 0,18.5508 -146.18,0 0,-18.5508 z"
         style="fill:#4d7ec9;fill-opacity:1;fill-rule:nonzero;stroke:none"
         id="path30"
         inkscape:connector-curvature="0" /><path
         d="m 462.469,81.0781 62.8125,0 0,18.5547 -62.8125,0 0,-18.5547 z"
         style="fill:#4d7ec9;fill-opacity:1;fill-rule:nonzero;stroke:none"
         id="path32"
         inkscape:connector-curvature="0" /><path
         d="m 558.086,81.0781 60.008,0 6.426,18.5547 -72.86,0 6.426,-18.5547"
         style="fill:#4d7ec9;fill-opacity:1;fill-rule:nonzero;stroke:none"
         id="path34"
         inkscape:connector-curvature="0" /><path
         d="m 462.469,121.102 62.8125,0 0,18.5508 -62.8125,0 0,-18.5508 z"
         style="fill:#4d7ec9;fill-opacity:1;fill-rule:nonzero;stroke:none"
         id="path36"
         inkscape:connector-curvature="0" /><path
         d="m 544.355,121.102 87.469,0 6.418,18.55 -100.312,0 6.425,-18.55"
         style="fill:#4d7ec9;fill-opacity:1;fill-rule:nonzero;stroke:none"
         id="path38"
         inkscape:connector-curvature="0" /><path
         d="m 579.426,179.676 -116.957,0 0,-18.551 62.812,0 0,15.336 5.313,-15.336 55.148,0 -6.316,18.551"
         style="fill:#4d7ec9;fill-opacity:1;fill-rule:nonzero;stroke:none"
         id="path40"
         inkscape:connector-curvature="0" /><path
         d="m 596.75,179.676 -6.32,-18.551 55.097,0 5.36,15.5 0,-15.5 62.812,0 0,18.551 -116.949,0"
         style="fill:#4d7ec9;fill-opacity:1;fill-rule:nonzero;stroke:none"
         id="path42"
         inkscape:connector-curvature="0" /><path
         d="m 565.906,219.699 -103.437,0 0,-18.551 109.765,0 -6.328,18.551"
         style="fill:#4d7ec9;fill-opacity:1;fill-rule:nonzero;stroke:none"
         id="path44"
         inkscape:connector-curvature="0" /><path
         d="m 650.887,81.0781 62.8125,0 0,18.5547 -62.8125,0 0,-18.5547 z"
         style="fill:#4d7ec9;fill-opacity:1;fill-rule:nonzero;stroke:none"
         id="path46"
         inkscape:connector-curvature="0" /><path
         d="m 650.887,121.102 62.8125,0 0,18.5508 -62.8125,0 0,-18.5508 z"
         style="fill:#4d7ec9;fill-opacity:1;fill-rule:nonzero;stroke:none"
         id="path48"
         inkscape:connector-curvature="0" /><path
         d="m 610.262,219.699 -6.328,-18.551 109.765,0 0,18.551 -103.437,0"
         style="fill:#4d7ec9;fill-opacity:1;fill-rule:nonzero;stroke:none"
         id="path50"
         inkscape:connector-curvature="0" /><path
         d="m 650.887,1.03516 104.68,0 0,18.5547 -104.68,0 0,-18.5547 z"
         style="fill:#4d7ec9;fill-opacity:1;fill-rule:nonzero;stroke:none"
         id="path52"
         inkscape:connector-curvature="0" /><path
         d="m 420.605,1.03516 104.676,0 0,18.5547 -104.676,0 0,-18.5547 z"
         style="fill:#4d7ec9;fill-opacity:1;fill-rule:nonzero;stroke:none"
         id="path54"
         inkscape:connector-curvature="0" /><path
         d="m 585.547,1.03516 5.09,0 6.414,18.55464 -17.93,0 6.426,-18.55464"
         style="fill:#4d7ec9;fill-opacity:1;fill-rule:nonzero;stroke:none"
         id="path56"
         inkscape:connector-curvature="0" /><path
         d="m 650.887,41.0547 104.68,0 0,18.5547 -104.68,0 0,-18.5547 z"
         style="fill:#4d7ec9;fill-opacity:1;fill-rule:nonzero;stroke:none"
         id="path58"
         inkscape:connector-curvature="0" /><path
         d="m 420.605,41.0547 104.676,0 0,18.5547 -104.676,0 0,-18.5547 z"
         style="fill:#4d7ec9;fill-opacity:1;fill-rule:nonzero;stroke:none"
         id="path60"
         inkscape:connector-curvature="0" /><path
         d="m 571.816,41.0547 32.547,0 6.418,18.5547 -45.39,0 6.425,-18.5547"
         style="fill:#4d7ec9;fill-opacity:1;fill-rule:nonzero;stroke:none"
         id="path62"
         inkscape:connector-curvature="0" /><path
         d="m 637.285,299.746 -6.316,-18.555 124.597,0 0,18.555 -118.281,0"
         style="fill:#4d7ec9;fill-opacity:1;fill-rule:nonzero;stroke:none"
         id="path64"
         inkscape:connector-curvature="0" /><path
         d="m 538.887,299.746 -118.282,0 0,-18.555 124.602,0 -6.32,18.555"
         style="fill:#4d7ec9;fill-opacity:1;fill-rule:nonzero;stroke:none"
         id="path66"
         inkscape:connector-curvature="0" /><path
         d="m 623.777,259.723 -6.328,-18.555 138.117,0 0,18.555 -131.789,0"
         style="fill:#4d7ec9;fill-opacity:1;fill-rule:nonzero;stroke:none"
         id="path68"
         inkscape:connector-curvature="0" /><path
         d="m 552.402,259.723 -131.797,0 0,-18.555 138.114,0 -6.317,18.555"
         style="fill:#4d7ec9;fill-opacity:1;fill-rule:nonzero;stroke:none"
         id="path70"
         inkscape:connector-curvature="0" /><path
         d="m 210.066,201.148 62.8164,0 0,18.5508 -62.8164,0 0,-18.5508 z"
         style="fill:#4d7ec9;fill-opacity:1;fill-rule:nonzero;stroke:none"
         id="path72"
         inkscape:connector-curvature="0" /><path
         d="m 210.066,81.0781 62.8164,0 0,18.5547 -62.8164,0 0,-18.5547 z"
         style="fill:#4d7ec9;fill-opacity:1;fill-rule:nonzero;stroke:none"
         id="path74"
         inkscape:connector-curvature="0" /><path
         d="m 168.199,281.191 206.051,0 c -18.605,15.235 -46.242,18.555 -75.07,18.555 l -130.981,0 0,-18.555"
         style="fill:#4d7ec9;fill-opacity:1;fill-rule:nonzero;stroke:none"
         id="path76"
         inkscape:connector-curvature="0" /><path
         d="m 168.199,259.723 223.637,0 c 2.227,-3.61 6.141,-12.047 7.43,-18.555 l -231.067,0 0,18.555"
         style="fill:#4d7ec9;fill-opacity:1;fill-rule:nonzero;stroke:none"
         id="path78"
         inkscape:connector-curvature="0" /><path
         d="m 210.066,139.652 159.993,0 c 5.91,-3.711 14.414,-12.089 18.808,-18.55 l -178.801,0 0,18.55"
         style="fill:#4d7ec9;fill-opacity:1;fill-rule:nonzero;stroke:none"
         id="path80"
         inkscape:connector-curvature="0" /><path
         d="m 335.684,219.699 66.14,0 c 0.031,-6.89 -1.562,-14.129 -3.008,-18.551 l -63.132,0 0,18.551"
         style="fill:#4d7ec9;fill-opacity:1;fill-rule:nonzero;stroke:none"
         id="path82"
         inkscape:connector-curvature="0" /><path
         d="m 335.684,99.6328 63.425,0 c 1.723,-4.1055 3.11,-10.9922 3.254,-18.5547 l -66.679,0 0,18.5547"
         style="fill:#4d7ec9;fill-opacity:1;fill-rule:nonzero;stroke:none"
         id="path84"
         inkscape:connector-curvature="0" /><path
         d="m 168.199,59.6094 232.348,0 c -0.82,-4.7422 -5.52,-15.8672 -7.539,-18.5547 l -224.809,0 0,18.5547"
         style="fill:#4d7ec9;fill-opacity:1;fill-rule:nonzero;stroke:none"
         id="path86"
         inkscape:connector-curvature="0" /><path
         d="m 168.199,19.5898 206.281,0 C 356.316,5.23438 331.434,1.03516 302.617,1.03516 l -134.418,0 0,18.55464"
         style="fill:#4d7ec9;fill-opacity:1;fill-rule:nonzero;stroke:none"
         id="path88"
         inkscape:connector-curvature="0" /><path
         d="m 210.066,161.125 160.118,0 c 7.074,5.09 13.214,11.375 18.418,18.551 l -178.536,0 0,-18.551"
         style="fill:#4d7ec9;fill-opacity:1;fill-rule:nonzero;stroke:none"
         id="path90"
         inkscape:connector-curvature="0" /></g></g></svg>