<?xml version="1.0" encoding="UTF-8" standalone="no"?>
<!-- Created with Inkscape (http://www.inkscape.org/) -->

<svg
   xmlns:dc="http://purl.org/dc/elements/1.1/"
   xmlns:cc="http://creativecommons.org/ns#"
   xmlns:rdf="http://www.w3.org/1999/02/22-rdf-syntax-ns#"
   xmlns:svg="http://www.w3.org/2000/svg"
   xmlns="http://www.w3.org/2000/svg"
   xmlns:sodipodi="http://sodipodi.sourceforge.net/DTD/sodipodi-0.dtd"
   xmlns:inkscape="http://www.inkscape.org/namespaces/inkscape"
   width="527.75598mm"
   height="282.22241mm"
   viewBox="0 0 1870.0015 1000.0007"
   id="svg2"
   version="1.1"
   inkscape:version="0.91 r13725"
   sodipodi:docname="ow.svg">
  <defs
     id="defs4" />
  <sodipodi:namedview
     id="base"
     pagecolor="#ffffff"
     bordercolor="#666666"
     borderopacity="1.0"
     inkscape:pageopacity="0.0"
     inkscape:pageshadow="2"
     inkscape:zoom="0.175"
     inkscape:cx="1821.6918"
     inkscape:cy="164.6093"
     inkscape:document-units="px"
     inkscape:current-layer="layer1"
     showgrid="false"
     fit-margin-top="0"
     fit-margin-left="0"
     fit-margin-right="0"
     fit-margin-bottom="0"
     inkscape:window-width="1366"
     inkscape:window-height="705"
     inkscape:window-x="-8"
     inkscape:window-y="-8"
     inkscape:window-maximized="1" />
  <metadata
     id="metadata7">
    <rdf:RDF>
      <cc:Work
         rdf:about="">
        <dc:format>image/svg+xml</dc:format>
        <dc:type
           rdf:resource="http://purl.org/dc/dcmitype/StillImage" />
        <dc:title></dc:title>
      </cc:Work>
    </rdf:RDF>
  </metadata>
  <g
     inkscape:label="Calque 1"
     inkscape:groupmode="layer"
     id="layer1"
     transform="translate(250.00122,-302.36196)">
    <path
       style="fill:#FFFFFF"
       d="m -230,1302.3622 c -15.74369,-0.2474 -19.98183,-4.7166 -20,-20 l 0,-954.30242 c -0.10409,-20.39015 6.47103,-25.60436 20,-25.69758 609.96472,3.40043 1219.92259,1.54982 1829.8878,0 12.7336,-0.0462 19.9965,6.61719 20.1122,25.82445 l 0,958.80095 c 0.044,10.9786 -7.1984,15.4242 -20,15.3746 z m 1830,-34.8915 0,-926.43812 c -0.082,-16.28881 -2.2176,-18.36289 -14.8574,-18.67038 l -1800.58999,0 c -13.03187,-0.0544 -14.08096,1.26331 -14.55261,24.04116 l 0,920.95884 c 0.28284,9.3677 3.87385,14.6206 15.87501,15 642.09205,3.598 1007.2527,2.3322 1794.90119,0 16.8189,-0.039 19.13,-2.7765 19.2238,-14.8915 z m -734.47399,-69.8501 c -19.3586,-4.9006 -34.9397,-19.3577 -41.3904,-38.4047 -2.9518,-8.7157 -3.568,-21.7385 -1.4417,-30.4688 1.8326,-7.5243 6.8452,-17.4816 12.0142,-23.8652 5.4394,-6.7176 16.4193,-14.4209 24.7222,-17.3447 8.2659,-2.9107 24.3123,-3.6821 32.5728,-1.5659 20.283,5.1963 36.639,21.4297 41.8182,41.5049 1.8776,7.2779 1.9121,20.7564 0.072,28.0271 -4.7129,18.6188 -18.8768,34.0275 -37.0833,40.3425 -8.8783,3.0794 -22.9719,3.879 -31.2838,1.7748 z m 29.9376,-22.4288 c 0,-1.3411 -0.8727,-2.015 -3.2354,-2.4983 -5.7321,-1.1723 -5.6708,-0.7759 -5.6708,-36.655 0,-26.3783 -0.2408,-32.7551 -1.2518,-33.1431 -0.6885,-0.2642 -4.8018,0.9489 -9.1407,2.6958 -4.3388,1.7469 -9.4948,3.7045 -11.4577,4.3501 -2.8443,0.9356 -3.5106,1.584 -3.2813,3.193 0.2505,1.7582 0.7932,1.9793 4.1997,1.7112 3.1499,-0.2479 4.1089,0.06 4.9219,1.579 0.649,1.2124 1.0099,10.8043 1.0099,26.8349 l 0,24.948 -2.3011,2.3011 c -1.2656,1.2656 -3.3502,2.3011 -4.6322,2.3011 -2.6313,0 -3.8009,1.2989 -3.0146,3.3479 0.4455,1.1609 3.2067,1.3419 17.1924,1.127 15.8334,-0.2434 16.6617,-0.3474 16.6617,-2.0927 z m 134.28799,6.5904 c -4.7221,-1.6851 -6.299,-3.1188 -8.3222,-7.5663 -1.5769,-3.4666 -1.7073,-7.3492 -1.7264,-51.371 l -0.021,-47.6209 6.3281,0.2772 6.3281,0.2772 0.4914,45.4687 c 0.2702,25.0079 0.5866,45.5441 0.7031,45.6362 0.1165,0.092 0.8747,0.8304 1.685,1.6406 2.1115,2.1115 12.8137,2.0555 14.5839,-0.076 1.0368,-1.2486 1.3777,-10.3968 1.7554,-47.1094 l 0.4687,-45.5598 6.5625,0 6.5625,0 0.2435,45.4318 c 0.2053,38.294 0.021,46.1982 -1.1744,50.3095 -1.614,5.552 -5.1682,9.12 -10.5826,10.6237 -4.9081,1.3631 -19.6797,1.1397 -23.886,-0.3612 z m 58.9825,0.032 c -4.7839,-1.7843 -7.9299,-4.8712 -9.1196,-8.9481 -0.6296,-2.1577 -0.8726,-18.3092 -0.6874,-45.6915 0.2799,-41.3644 0.3327,-42.416 2.2595,-45 3.9139,-5.2487 7.2807,-6.3985 18.652,-6.3702 12.0247,0.03 16.0781,1.4549 19.3926,6.818 1.7745,2.8713 2.085,4.7409 2.1241,12.7908 l 0.046,9.428 -6.5625,0 -6.5625,0 -0.4687,-6.8741 c -0.3664,-5.3734 -0.8661,-7.1643 -2.2885,-8.2031 -1.9615,-1.4324 -8.6784,-1.7776 -10.6193,-0.5456 -2.5437,1.6145 -3.0297,8.0311 -3.0297,39.9978 0,31.9667 0.486,38.3833 3.0297,39.9979 0.654,0.415 3.1413,0.7611 5.5274,0.769 5.2605,0.017 6.6621,-1.3858 7.3491,-7.3577 l 0.4999,-4.3467 6.5625,0 6.5625,0 -0.1059,7.1379 c -0.1224,8.2509 -1.8249,12.0215 -6.8258,15.1179 -4.1548,2.5725 -20.1384,3.3673 -25.7353,1.2797 z m 45.3233,-52.6408 0,-53.9491 6.3281,0.2772 6.3281,0.2772 0.4688,46.875 0.4687,46.875 9.6094,0.2672 9.6094,0.2671 0,6.5297 0,6.5297 -16.4063,0 -16.4062,0 z m 129.0817,53.3433 c -0.3543,-0.3544 -0.6442,-8.9295 -0.6442,-19.0559 0,-21.6236 -0.9789,-19.2389 13.5364,-32.9761 5.0868,-4.8141 9.8173,-10.114 10.5123,-11.7775 1.5339,-3.6711 1.7249,-22.3749 0.2676,-26.2078 -1.2664,-3.3308 -2.4136,-4.0323 -6.6234,-4.0501 -4.6458,-0.02 -5.8883,1.8576 -6.4429,9.7348 l -0.4688,6.6571 -6.5625,0 -6.5625,0 -0.3075,-6.0938 c -0.7141,-14.1472 3.3225,-20.7836 13.7604,-22.6222 7.7105,-1.3581 16.9971,-0.33 20.9671,2.3214 5.7976,3.8719 6.3582,6.3156 6.3598,27.7231 l 0,19.141 -12.1875,12.3081 -12.1875,12.3081 0,9.935 c 0,8.1945 0.2598,10.0346 1.4829,10.504 0.8157,0.313 6.3201,0.569 12.2323,0.569 l 10.7492,0 -0.2791,5.8594 -0.2791,5.8594 -18.3401,0.2536 c -10.0871,0.1395 -18.6301,-0.036 -18.9844,-0.3906 z m 64.0433,-0.4398 c -3.8387,-1.1431 -7.8713,-4.6993 -9.3345,-8.2318 -0.7152,-1.7266 -0.9527,-15.8125 -0.7713,-45.7596 0.2562,-42.3103 0.3055,-43.3234 2.235,-45.9109 3.9474,-5.2935 7.2429,-6.3959 19.1208,-6.3959 11.8786,0 15.1744,1.1026 19.1208,6.3969 1.9406,2.6034 1.9729,3.3753 1.9729,47.0406 0,43.6653 -0.032,44.4372 -1.9729,47.0406 -3.7115,4.9791 -7.3858,6.3448 -17.7076,6.5818 -5.1601,0.1184 -10.8585,-0.2243 -12.6632,-0.7617 z m 17.9321,-13.6285 c 1.6975,-2.0435 2.4566,-70.0716 0.8431,-75.5512 -1.1654,-3.9579 -2.9291,-4.7582 -9.4535,-4.2896 -6.654,0.478 -6.549,-0.2213 -6.278,41.8567 0.2272,35.2716 0.3166,36.9309 2.0573,38.2031 2.5978,1.8987 11.194,1.7519 12.8311,-0.219 z m 37.8202,13.5022 c -0.2413,-0.6446 -0.5445,-19.9453 -0.6737,-42.8907 -0.2622,-46.5781 0.4251,-42.1123 -6.3286,-41.1241 -1.9394,0.2837 -2.6533,-0.2913 -4.138,-3.3328 l -1.7944,-3.6758 2.6501,-1.9492 c 1.4576,-1.0721 5.0844,-4.3751 8.0594,-7.3399 2.9752,-2.9649 5.9726,-5.3907 6.661,-5.3907 0.6884,0 2.8261,1.0699 4.7506,2.3776 l 3.4988,2.3775 0,51.06 0,51.0599 -6.1232,0 c -4.0395,0 -6.2725,-0.3987 -6.562,-1.1718 z m 38.9057,0.2896 c -4.1794,-1.2698 -6.6435,-3.2486 -8.486,-6.8148 -1.6939,-3.2787 -1.797,-5.9313 -1.797,-46.2335 0,-29.7655 0.3196,-43.3774 1.0521,-44.803 3.6777,-7.1584 10.6777,-9.7458 23.6696,-8.7489 9.0383,0.6935 12.5417,2.5449 15.382,8.1289 1.8333,3.6041 2.0983,5.3898 1.875,12.6348 l -0.2599,8.4375 -6.5625,0 -6.5625,0 -0.4688,-6.8741 c -0.5612,-8.2294 -1.9439,-9.764 -8.4152,-9.339 -6.1359,0.403 -6.5544,1.7455 -6.571,21.0796 -0.01,9.5552 0.3611,16.3483 0.9071,16.6857 0.5066,0.3131 2.5029,-0.5058 4.4364,-1.8196 4.5957,-3.1229 13.1967,-3.3588 17.9003,-0.491 5.7563,3.5095 6.6984,7.396 6.7218,27.7279 0.012,10.9293 -0.3944,19.1487 -1.0445,21.0937 -1.5591,4.6652 -5.1261,8.027 -9.7532,9.1921 -4.5826,1.1539 -18.4021,1.2441 -22.0237,0.1437 z m 17.0651,-13.7943 c 1.519,-1.3747 1.7144,-3.1913 1.7144,-15.9375 0,-13.2449 -0.1521,-14.5381 -1.9186,-16.3046 -1.5965,-1.5966 -2.8947,-1.8719 -7.7344,-1.6406 l -5.8157,0.278 0,16.2489 c 0,15.0031 0.1395,16.3508 1.8197,17.5781 2.5273,1.8459 9.7989,1.7105 11.9346,-0.2223 z M -84.714386,1157.4472 c -3.3396,-2.7856 -8.1813,-7.527 -10.7595,-10.5364 -2.5781,-3.0094 -7.851504,-8.9386 -11.718704,-13.1761 -10.9248,-11.971 -16.1267,-18.03 -21.5868,-25.1435 -2.7704,-3.6094 -6.7459,-8.4867 -8.8345,-10.8384 -2.0886,-2.3517 -5.9068,-7.7428 -8.485,-11.9801 -2.5781,-4.2374 -6.9023,-11.046 -9.6093,-15.1304 -2.7071,-4.0844 -4.9219,-7.8004 -4.9219,-8.2579 0,-0.4574 -1.6198,-3.1152 -3.5996,-5.9062 -8.9848,-12.6661 -21.1612,-44.224 -28.7258,-74.44954 -2.7704,-11.0695 -4.2257,-18.91687 -4.2302,-22.81016 l -0.01,-5.93516 8.3212,-9.53359 c 70.2589,-73.6521 179.3895614,-129.92258 262.147504,-152.01746 9.2813,-2.36935 20.8829,-5.17163 25.7813,-6.22728 34.675696,-7.47288 48.661096,-9.83219 62.561196,-10.55399 11.1069,-0.57675 16.9029,-1.51964 33.0638,-5.37875 23.4772,-5.60623 36.3832,-10.61123 43.4874,-16.86463 7.0088,-6.16941 7.1267,-4.58377 0.4032,5.42463 -4.7698,7.10018 -11.4368,22.64453 -10.8881,25.38567 0.27,1.3487 18.6103,-22.53811 28.9444,-37.6978 5.5643,-8.16253 21.0479,-25.19564 27.9255,-30.72016 18.0674,-14.51269 25.886,-18.04477 39.9713,-18.05737 4.6407,-0.004 17.2969,0.36371 28.125,0.81747 17.3868,0.72861 20.1152,0.64463 23.3471,-0.71863 2.0128,-0.84901 3.8766,-1.32667 4.1418,-1.06148 0.2651,0.26519 -2.4756,3.54026 -6.0905,7.27792 -3.6149,3.73767 -7.1296,7.85046 -7.8105,9.13952 -0.6808,1.28906 -2.8564,4.49146 -4.8347,7.11644 -3.4276,4.54807 -4.6009,7.46482 -2.7314,6.78981 0.9783,-0.3532 17.2431,-13.55128 23.0087,-18.67045 2.0801,-1.84687 5.8914,-4.76702 8.4695,-6.48923 2.5782,-1.7222 6.586,-4.66485 8.9063,-6.53922 17.37,-14.0317 37.7478,-25.85569 67.0898,-38.92825 26.3477,-11.73848 56.9088,-20.32148 82.209,-23.08812 29.2314,-3.19652 62.628,6.50567 74.0788,21.521 4.3987,5.76796 4.4943,7.08765 0.4505,6.223 -1.6758,-0.35832 -3.4687,-0.98854 -3.9844,-1.40048 -2.15,-1.71776 -17.2687,-3.7213 -27.9941,-3.70984 -10.4835,0.0113 -28.4844,2.22545 -37.1621,4.57122 -23.8233,6.43996 -48.1271,17.44256 -62.3438,28.22368 -13.2741,10.06642 -42.9603,38.90413 -66.1138,64.22419 -37.48629,39.94122 -75.97825,73.30278 -128.8862,94.74346 -18.2676,7.16346 -28.17,12.18449 -30.5094,15.46997 -3.2484,4.56198 -3.45,10.03909 -0.5796,15.75376 2.5999,5.17642 11.2013,16.48947 21.7631,28.62417 3.6363,4.17787 8.8645,10.33833 11.6182,13.68989 2.7536,3.35156 5.3132,6.30469 5.6878,6.5625 0.3746,0.25781 3.1998,3.63281 6.2782,7.5 44.50413,46.49439 94.64978,100.72399 140.8108,133.12499 2.668,1.8047 6.8377,4.7346 9.2659,6.5109 2.4283,1.7762 7.79,5.3193 11.915,7.8734 4.125,2.5541 10.875,6.8258 15,9.4927 15.2587,9.8649 32.2644,16.7369 57.6563,23.2988 16.1611,4.1764 41.6448,6.7193 57.5328,5.7409 10.4353,-0.6426 13.418,-0.034 10.66,2.1768 -1.5022,1.2039 -15.2386,5.3715 -23.6616,7.1788 -29.2748,6.2815 -60.3498,6.2863 -90,0.014 -18.7406,-3.9645 -25.8431,-5.9767 -46.4062,-13.1473 -79.37887,-31.745 -160.87191,-89.5769 -211.9002,-152.73284 -2.8151,-3.60938 -9.3645,-10.99219 -14.5542,-16.40625 -15.7028,-16.3819 -20.3372,-21.50592 -30.9889,-34.26266 -16.627,-19.91311 -22.3614,-26.52927 -23.0583,-26.60415 -1.8379,-0.19748 9.9765,20.95892 21.5533,38.59627 6.1624,9.38846 15.2182,19.59782 18.4019,20.7462 6.9624,2.51127 -10.9632,3.27335 -49.6099,2.10907 -10.3125,-0.31068 -24.4453,-0.14557 -31.4062,0.3669 -26.7666,1.97059 -36.396096,2.96765 -44.999996,4.65947 -4.8984,0.96319 -11.8594,2.2325 -15.4688,2.82069 -3.6093,0.58818 -9.5156,1.87884 -13.125,2.86814 -3.6093,0.9893 -10.9921,2.91812 -16.4062,4.28628 -11.12,2.81005 -31.9309997,11.54677 -38.9828997,16.36549 -7.529,5.14472 -33.7066003,28.82129 -37.1007003,33.55609 -1.7096,2.3848 -4.4206,5.8126 -6.0246,7.6172 -6.233,7.013 -19.1612,32.001 -24.9796,48.2813 -1.29,3.6094 -3.8489,10.7812 -5.6865,15.9375 -2.9454,8.265 -4.3101,14.4231 -7.2715,32.8125 -1.5195,9.4359 -0.834,33.6351 1.211,42.7535 0.5767,2.571 -2.098,1.4416 -7.7495,-3.2725 z M 278.51201,759.74086 c 1.8094,-0.69436 1.9403,-3.50929 0.2291,-4.92945 -0.9557,-0.79311 -1.7029,-0.54171 -3.1418,1.05708 -3.255,3.6165 -3.4208,4.44142 -0.8927,4.44142 1.2774,0 2.9898,-0.25607 3.8054,-0.56905 z m 23.1146,-5.12893 c 12.2778,-3.05576 13.2951,-4.1131 8.4363,-8.7681 -3.7101,-3.55455 -6.3171,-10.01437 -7.1202,-17.6433 -0.3664,-3.48046 -1.0125,-6.32812 -1.4358,-6.32812 -1.1687,0 -10.2765,11.26882 -14.2464,17.62655 -3.9111,6.26364 -4.2248,8.26979 -1.9785,12.65438 2.6562,5.1849 4.3605,5.44127 16.3446,2.45859 z m 24.5985,-13.2864 c 0.7003,-1.16015 3.0824,-4.96077 5.2934,-8.4458 3.3336,-5.25461 3.9179,-6.84684 3.422,-9.32599 -1.2324,-6.16206 -2.5449,-7.06819 -11.2937,-7.79696 -10.5706,-0.88053 -11.6349,-0.44725 -8.6681,3.52891 2.8136,3.77088 6.2662,13.67889 6.2662,17.98252 0,6.19931 2.4715,8.21286 4.9802,4.05732 z m 16.3478,-25.62512 c -0.8934,-0.8934 -2.6845,0.55368 -2.0187,1.63097 0.3957,0.64031 0.9201,0.62414 1.5934,-0.0491 0.5519,-0.55196 0.7433,-1.26378 0.4253,-1.58182 z m 446.0157,428.34579 c -10.8281,-1.8116 -20.1478,-3.6707 -20.7104,-4.1312 -0.7306,-0.5981 -0.4235,-4.5708 1.0746,-13.9033 1.1536,-7.1863 2.3686,-13.5045 2.6999,-14.0406 0.5477,-0.8862 2.6785,-0.7741 8.7815,0.4619 2.0708,0.4194 2.1466,0.7485 1.875,8.1414 -0.2678,7.2878 -0.1734,7.7199 1.7458,7.9933 2.2494,0.3205 2.6088,-0.455 3.6093,-7.789 0.3516,-2.5781 1.0377,-4.9343 1.5245,-5.236 1.1934,-0.7396 9.113,0.5116 10.2152,1.6138 0.5482,0.5482 0.4861,3.1153 -0.1646,6.8098 -1.131,6.4204 -0.4668,7.8637 3.3892,7.3646 1.4102,-0.1825 2.0175,-1.247 2.5437,-4.4585 0.38,-2.3203 0.9469,-5.6451 1.2598,-7.3884 l 0.5689,-3.1697 4.7845,0.5666 c 2.6316,0.3117 5.2057,0.9879 5.7206,1.5027 0.8542,0.8542 -0.8177,15.0795 -2.981,25.3638 -0.9156,4.3532 -1.6531,4.3617 -25.9365,0.2988 z m 154.4115,2.2771 c -0.5553,-0.6691 -1.2954,-3.3702 -1.6445,-6.0026 l -0.635,-4.7861 6.1997,-4.968 c 8.5023,-6.8134 8.312,-7.5054 -1.4237,-5.1774 -2.9037,0.6944 -5.749,0.9723 -6.323,0.6176 -1.4278,-0.8825 -3.432,-11.2128 -2.3647,-12.1893 1.1979,-1.0961 41.4257,-9.6077 43.7772,-9.2626 1.4749,0.2164 2.2449,1.4301 3.1554,4.9738 0.6624,2.5781 0.9986,5.3203 0.747,6.0937 -0.2517,0.7735 -2.9829,3.2947 -6.0693,5.6028 -5.8449,4.3707 -7.104,6.2728 -3.5024,5.2908 1.1601,-0.3163 4.2933,-0.8419 6.9625,-1.1679 l 4.8532,-0.5927 0.9073,3.6367 c 1.6887,6.7692 1.8138,7.6461 1.2245,8.5831 -0.3235,0.5144 -9.8694,2.8971 -21.2132,5.2948 -11.3437,2.3977 -21.3037,4.5643 -22.1332,4.8146 -0.8296,0.2503 -1.9626,-0.092 -2.5178,-0.7613 z m 252.64169,-5.9915 c -0.3558,-0.3558 -0.6469,-2.8969 -0.6469,-5.6469 l 0,-5 16.453,0 16.4531,0 -0.2812,5.3907 -0.2812,5.3906 -15.525,0.2562 c -8.5387,0.141 -15.816,-0.035 -16.1718,-0.3906 z m -633.92819,-27.9609 c -15.7653,-3.2726 -18.4363,-4.0937 -36.5625,-11.2394 -16.318,-6.4329 -28.69,-12.7601 -44.0625,-22.5342 -40.27415,-28.4135 -78.66703,-57.4606 -105.7487,-96.72171 -2.1663,-3.17794 -7.07,-9.92794 -10.897,-15 -3.8271,-5.07207 -8.2568,-11.03471 -9.8438,-13.25033 -5.2385,-7.31346 -5.9988,-8.16553 -6.6805,-7.48643 -0.6807,0.67801 3.9492,13.29112 7.1987,19.61122 1.8633,3.62419 2.2762,6.43486 0.9453,6.43486 -0.8192,0 -30.7452,-30.91835 -40.9595,-42.31765 -10.0727,-11.24127 -21.1257,-24.83877 -29.1662,-35.8805 -2.6616,-3.65508 -5.7168,-7.76297 -6.7894,-9.12864 -3.3718,-4.29302 -5.9152,-11.28482 -5.3629,-14.74261 0.5547,-3.4734 2.9525,-6.6806 4.9946,-6.6806 0.7185,0 3.0789,-0.87302 5.2454,-1.94003 2.1665,-1.06703 8.7906,-3.86634 14.7203,-6.22069 55.86192,-24.73178 108.71853,-65.02174 145.7812,-113.70302 10.3663,-13.74738 16.473,-19.67634 29.5313,-28.67162 7.7097,-5.31091 12.6123,-4.78368 8.8541,0.95216 -2.2631,3.45383 -2.0033,16.97146 0.4807,25.01366 3.0455,9.86006 6.4727,13.41985 17.0806,17.74119 2.7449,1.11823 7.1985,2.93629 9.8967,4.04012 2.6983,1.10384 4.9131,2.5322 4.9219,3.17413 0.01,0.64193 -2.119,3.806 -4.7285,7.03125 -2.6095,3.22525 -7.1224,9.87191 -10.0287,14.77035 -2.9063,4.89844 -6.212,10.17187 -7.346,11.71875 -16.14512,27.59879 -27.14104,61.26303 -35.4603,90.9375 -4.9971,17.88439 -6.121,28.96769 -4.0245,39.68855 2.3232,11.87979 0.8132,10.93181 -19.8912,-12.4874 -8.3724,-9.47013 -18.437,-18.99521 -19.2244,-18.19393 -0.4427,0.45045 9.0825,15.69004 14.0961,22.55269 4.1068,5.62132 17.8354,21.79132 23.3503,27.50259 6.0745,6.29085 11.4001,14.66477 21.7623,34.21875 4.1138,7.763 6.5749,11.82696 9.6516,15.9375 1.3508,1.80469 5.5913,7.49419 9.4233,12.64329 3.832,5.1491 12.5571,15.0071 19.3891,21.9068 6.8321,6.8996 12.4219,12.8383 12.4219,13.197 0,0.3587 -1.3043,1.8912 -2.8984,3.4057 -1.5941,1.5144 -3.7522,4.4144 -4.7959,6.4444 -2.5305,4.9217 -1.7393,12.0207 2.2529,20.2153 3.9252,8.0572 15.7118,19.8692 23.1449,23.1949 6.3721,2.851 15.8099,3.7487 22.5106,2.1412 l 4.7976,-1.1509 c 3.71809,4.0658 6.23483,8.5391 12.6707,11.0309 5.35986,2.3931 5.5986,4.153 1.1457,4.1717 -1.6758,0.01 -3.8906,0.187 -4.9219,0.3999 -1.0312,0.2129 -8.625,-1.0141 -16.875,-2.7267 z m 240.5007,-13.5801 c -9.006,-8.1688 -16.5317,-15.324 -16.7238,-15.9005 -0.1922,-0.5764 2.3247,-4.0654 5.5931,-7.7533 10.1201,-11.4191 18.2091,-13.5302 29.1098,-7.5973 6.1184,3.33 11.4386,9.4752 13.9126,16.0698 2.1522,5.737 2.0251,9.1791 -0.5387,14.5819 -1.844,3.8858 -12.3198,15.5791 -13.8898,15.5039 -0.5989,-0.029 -8.4573,-6.7357 -17.4632,-14.9045 z m 20.4169,-6.8061 c 0.2202,-1.902 -0.6961,-3.6006 -3.7014,-6.8608 -2.1967,-2.3831 -5.155,-4.9333 -6.5741,-5.6672 -3.3981,-1.7572 -8.2983,-1.7594 -8.2983,0 0,1.8703 15.1647,15.6382 16.875,15.3207 0.7734,-0.1436 1.5379,-1.3987 1.6988,-2.7891 z m -216.252,18.8793 c -7.4939,-1.4732 -17.33,-7.0784 -21.5716,-12.2926 -6.0949,-7.4926 -5.3689,-11.9284 3.654,-22.324 7.987,-9.202 11.7889,-14.8871 16.0725,-24.0338 3.283,-7.0102 3.9106,-9.3103 4.0124,-14.7056 0.184,-9.7519 -1.8904,-21.9683 -4.7567,-28.0134 -2.1065,-4.4427 -2.3316,-5.5918 -1.3314,-6.7969 3.1779,-3.82924 10.9282,1.1616 18.6279,11.9955 8.1336,11.4445 9.5507,14.6413 12.4212,28.019 2.0725,9.6588 -0.5497,43.8091 -3.6854,47.9966 -0.4149,0.5541 -1.5255,3.092 -2.4681,5.6399 -2.0445,5.5268 -8.0212,12.3099 -12.4927,14.1782 -1.7712,0.74 -3.4853,1.2993 -3.809,1.2428 -0.3238,-0.056 -2.4267,-0.464 -4.6731,-0.9057 z m 322.5018,-6.5571 c -7.1953,-2.8819 -11.3861,-9.0589 -11.3861,-16.7823 0,-11.8211 12.2797,-25.1692 24.7236,-26.8748 10.4735,-1.4356 20.2139,7.1958 20.2467,17.9414 0.025,8.4526 -8.4881,19.9723 -18.0516,24.4249 -5.0994,2.3742 -11.4996,2.9061 -15.5326,1.2908 z m 11.19,-15.3585 c 4.3204,-3.4188 9.2989,-9.4775 9.2989,-11.3164 0,-2.0496 -3.513,-4.3986 -5.5915,-3.7389 -2.9868,0.9479 -12.0341,10.1893 -12.7438,13.0171 -0.7098,2.8281 0.8293,5.2747 3.3181,5.2747 0.8956,0 3.4689,-1.4564 5.7183,-3.2365 z m -387.3152,3.2859 c -4.416,-1.3402 -14.8561,-8.5775 -18.9635,-13.1458 -4.8509,-5.3954 -7.846,-13.8211 -6.8328,-19.2219 1.1674,-6.2229 8.9252,-18.0887 10.9914,-16.8118 0.4367,0.27 0.7998,1.837 0.8068,3.4823 0.016,3.6928 0.9113,7.2103 1.8356,7.2103 0.3807,0 0.9342,-2.8875 1.2301,-6.4168 0.6726,-8.0228 3.8896,-16.0436 10.0751,-25.1203 2.7884,-4.0917 5.358,-9.1903 6.1347,-12.1726 1.5436,-5.926 1.7171,-17.72287 0.3481,-23.66029 -1.1465,-4.97238 -0.073,-6.6925 4.176,-6.6925 3.8906,0 6.1116,1.66736 10.2339,7.68259 5.9958,8.74903 10.8838,22.0218 12.4223,33.7312 1.5922,12.1189 1.1744,30.298 -0.8905,38.7425 -2.7297,11.1631 -4.1909,16.027 -6.3499,21.138 -3.4192,8.0939 -5.4574,10.3387 -10.2222,11.2583 -5.0714,0.9787 -11.7642,0.9773 -14.9951,0 z m 293.7038,-4.9975 c -1.9405,-2.4462 -18.1352,-40.203 -17.8551,-41.6279 0.3635,-1.8489 10.8508,-6.5529 11.9514,-5.3606 1.7055,1.8477 18.8133,41.8043 18.2732,42.6783 -0.3184,0.5151 -1.4871,1.2956 -2.5971,1.7346 -1.1101,0.4389 -3.5586,1.4557 -5.441,2.2596 -2.6696,1.14 -3.6226,1.2096 -4.3314,0.316 z m 51.8392,-3.0904 c -2.0501,-0.7617 -4.116,-1.7736 -4.591,-2.2486 -0.927,-0.9269 13.1225,-43.1584 14.7129,-44.2258 1.1033,-0.7404 11.0809,2.5842 11.9434,3.9797 0.3403,0.5506 -2.6469,10.5638 -6.6383,22.2516 -8.0829,23.6683 -7.6692,23.1256 -15.427,20.2431 z m -29.0387,-4.3833 c -0.2,-0.6446 -0.6315,-8.3155 -0.9588,-17.0465 -0.3274,-8.731 -0.8082,-16.2193 -1.0686,-16.6406 -0.2604,-0.4214 -2.3018,-0.7661 -4.5365,-0.7661 -2.8403,0 -4.2345,-0.4463 -4.6322,-1.4829 -0.9927,-2.5867 -0.6143,-8.5643 0.6028,-9.5245 0.6445,-0.5085 8.0371,-1.1947 16.428,-1.525 l 15.256,-0.6004 0.9616,2.5291 c 0.5288,1.391 0.8355,4.0295 0.6814,5.8633 -0.2737,3.257 -0.3814,3.3407 -4.6514,3.6166 -2.4042,0.1553 -4.5227,0.7881 -4.7079,1.4062 -0.185,0.6182 -0.093,8.2958 0.2046,17.0614 0.3146,9.2692 0.1771,16.4278 -0.3289,17.1094 -0.5382,0.7251 -3.1605,1.1718 -6.8782,1.1718 -3.9879,0 -6.1307,-0.394 -6.3719,-1.1718 z m -53.2884,-110.15632 c -0.4752,-0.87056 7.612,-157.75272 8.2157,-159.375 5.95192,-0.63135 13.85937,-0.62451 19.7498,0 0.6667,1.75181 -7.5102,157.58182 -8.3391,158.9231 -0.7906,1.27915 -18.9466,1.6972 -19.6264,0.4519 z m 41.25,0 c -0.4752,-0.87056 7.612,-157.75272 8.2157,-159.375 0.6241,-1.67699 18.6297,-1.63665 20.0252,0.0449 0.5554,0.66921 4.8316,17.19845 9.5027,36.73165 4.6711,19.53322 8.698,35.72006 8.9488,35.97077 0.2507,0.25072 0.6326,0.27902 0.8487,0.0629 0.2162,-0.21612 1.2504,-16.53587 2.2985,-36.26612 1.0479,-19.73025 2.1617,-36.2878 2.4748,-36.79456 0.6755,-1.09307 18.8905,-1.25738 19.5586,-0.17643 0.6318,1.02237 -7.5506,158.32496 -8.2986,159.53523 -0.7119,1.15191 -18.9007,1.33764 -19.6037,0.20019 -0.2616,-0.42331 -0.1052,-7.48972 0.3476,-15.70313 l 0.8233,-14.93348 -8.907,-34.67595 c -4.8989,-19.07177 -9.0881,-34.85693 -9.3092,-35.07813 -0.2213,-0.2212 -0.6704,-0.13396 -0.9983,0.19385 -0.3277,0.32782 -1.7218,22.66432 -3.0978,49.63668 -1.3761,26.97236 -2.8203,49.55571 -3.2094,50.18522 -0.7847,1.26965 -18.9447,1.67825 -19.6199,0.44145 z m 100.5857,-0.17459 c -6.9042,-1.39313 -11.9198,-5.38405 -14.4865,-11.52684 -2.0855,-4.99139 -1.8816,-16.55 1.3453,-76.25671 3.0101,-55.69366 3.3348,-58.11341 8.6651,-64.58005 1.5304,-1.85658 4.5346,-4.31257 6.6761,-5.45776 3.5971,-1.92357 5.1434,-2.08217 20.3,-2.08217 15.0244,0 16.7221,0.17044 20.15619,2.02352 9.2792,5.00706 11.7243,10.63066 11.706,26.92248 -0.019,16.66764 0.7366,15.58525 -10.8778,15.58525 -5.35389,0 -9.74509,-0.31641 -9.75799,-0.70313 -0.013,-0.38671 -0.1185,-5.22735 -0.2344,-10.75695 -0.1899,-9.06036 -0.4218,-10.26465 -2.3462,-12.1875 -1.8179,-1.81644 -3.1187,-2.13367 -8.7487,-2.13367 -6.2508,0 -6.7598,0.16378 -9.2826,2.98739 -1.7101,1.91387 -2.8579,4.44056 -3.1941,7.03125 -0.6796,5.23584 -5.2534,94.08353 -5.2418,101.82084 0.01,5.03304 0.3527,6.24581 2.3441,8.23719 2.2142,2.21426 2.809,2.32129 11.4844,2.06675 l 9.1491,-0.26842 0.579,-7.11776 c 0.3183,-3.91478 0.7402,-12.56322 0.9375,-19.21875 l 0.3585,-12.10099 -5.1562,-0.46875 -5.1563,-0.46875 0.339,-8.90625 c 0.1864,-4.89844 0.5278,-9.22266 0.7585,-9.60938 0.643,-1.0779 30.10239,-0.85815 30.77449,0.22958 0.6333,1.02469 -3.1193,75.86423 -3.8644,77.06987 -0.5638,0.9122 -42.63499,0.79614 -47.22629,-0.13029 z m 66.28929,0.17459 c -0.4752,-0.87056 7.612,-157.75272 8.2157,-159.375 0.3093,-0.83097 3.1805,-1.17187 9.87,-1.17187 6.6842,0 9.5638,0.34156 9.8798,1.17187 0.6667,1.75181 -7.5102,157.58182 -8.3391,158.9231 -0.7906,1.27915 -18.9466,1.6972 -19.6264,0.4519 z m 41.25,0 c -0.4752,-0.87056 7.612,-157.75272 8.2157,-159.375 0.6241,-1.67699 18.6297,-1.63665 20.0252,0.0449 0.5554,0.66921 4.8316,17.19845 9.5027,36.73165 4.6711,19.53322 8.698,35.72006 8.9488,35.97077 0.2507,0.25072 0.6326,0.27902 0.8487,0.0629 0.2162,-0.21612 1.2504,-16.53587 2.2985,-36.26612 1.0479,-19.73025 2.1617,-36.2878 2.4748,-36.79456 0.6755,-1.09307 18.8905,-1.25738 19.5586,-0.17643 0.6318,1.02237 -7.5506,158.32496 -8.2986,159.53523 -0.7119,1.15191 -18.9007,1.33764 -19.6037,0.20019 -0.2616,-0.42331 -0.1052,-7.48972 0.3476,-15.70313 l 0.8233,-14.93348 -8.907,-34.67595 c -4.8989,-19.07177 -9.0881,-34.85693 -9.3092,-35.07813 -0.2213,-0.2212 -0.6704,-0.13396 -0.9983,0.19385 -0.3277,0.32782 -1.7218,22.66432 -3.0978,49.63668 -1.3761,26.97236 -2.8203,49.55571 -3.2094,50.18522 -0.7847,1.26965 -18.9447,1.67825 -19.6199,0.44145 z m 84.375,0 c -0.4752,-0.87056 7.612,-157.75272 8.2157,-159.375 0.3093,-0.83097 3.1805,-1.17187 9.87,-1.17187 6.6842,0 9.5638,0.34156 9.8798,1.17187 0.6667,1.75181 -7.5102,157.58182 -8.3391,158.9231 -0.7906,1.27915 -18.9466,1.6972 -19.6264,0.4519 z m 57.4607,-0.27527 c -5.5644,-1.15486 -11.0861,-5.16133 -13.5102,-9.80285 -1.5872,-3.03892 -2.0126,-5.79438 -2.2432,-14.53125 -0.3535,-13.39025 5.0606,-113.57563 6.3926,-118.29123 1.6917,-5.98898 6.5858,-12.19084 11.6749,-14.79449 4.3516,-2.22637 5.7074,-2.40433 20.625,-2.707 10.0514,-0.20394 17.8125,0.0863 20.948,0.78356 8.9199,1.9834 14.7587,9.21822 15.6973,19.45074 0.2725,2.97119 -0.955,31.34748 -2.728,63.05842 -3.4252,61.26082 -3.5714,62.42942 -8.6517,69.08992 -1.3109,1.7187 -4.5721,4.25601 -7.2472,5.63847 -4.6459,2.40093 -5.5778,2.52403 -20.8013,2.74742 -8.7656,0.12862 -17.8359,-0.16015 -20.1562,-0.64171 z m 30.4492,-20.9481 c 1.2315,-1.23146 2.4748,-3.65724 2.7628,-5.39063 1.3207,-7.94692 6.092,-107.74756 5.2563,-109.94552 -1.3524,-3.55714 -5.5677,-5.23735 -13.1394,-5.23735 -7.5473,0 -12.4638,1.66966 -14.1402,4.80211 -1.069,1.99721 -6.2291,85.01735 -6.5751,105.7827 -0.1249,7.50291 0,8.04396 2.3669,10.07812 2.2448,1.93087 3.4519,2.14957 11.8644,2.14957 8.6228,0 9.5428,-0.17751 11.6043,-2.239 z m 59.3826,20.67333 c -9.5598,-2.69316 -14.6302,-9.78866 -15.4729,-21.65232 -0.4766,-6.71097 5.9554,-136.14591 6.8364,-137.5713 0.8193,-1.32565 19.1105,-0.94388 19.63,0.40972 0.2497,0.65061 -1.0293,29.82344 -2.8419,64.8285 -1.8128,35.00506 -3.2959,65.28879 -3.2959,67.29718 0,2.62702 0.6457,4.29728 2.3011,5.95275 2.1057,2.10569 3.0251,2.30114 10.8239,2.30114 7.7346,0 8.7298,-0.20706 10.7617,-2.239 1.2315,-1.23146 2.4731,-3.65724 2.7591,-5.39063 0.286,-1.73339 1.9986,-32.19109 3.8056,-67.68378 1.8071,-35.49268 3.5243,-64.91846 3.8162,-65.39062 0.676,-1.09383 18.889,-1.13386 19.5633,-0.043 0.482,0.78004 -5.363,120.81366 -6.4794,133.06032 -1.0845,11.8963 -6.2207,20.75825 -14.3035,24.67897 -3.9687,1.92513 -6.0381,2.18882 -18.9855,2.4193 -9.9117,0.17643 -15.9259,-0.13423 -18.9182,-0.97723 z m 85.9899,-0.0626 c -5.7949,-1.62777 -12.0716,-7.88112 -13.5972,-13.54663 -0.5734,-2.12963 -0.9218,-7.98882 -0.7742,-13.02044 l 0.2684,-9.14839 9.8438,0 9.8437,0 0.054,5.15625 c 0.08,7.59052 0.2227,8.18568 2.4664,10.27597 1.6375,1.52561 3.308,1.91153 8.274,1.91153 8.9504,0 10.3222,-1.65923 11.3395,-13.71565 0.4215,-4.99661 0.8674,-13.24398 0.991,-18.3275 0.2048,-8.43601 0.044,-9.42283 -1.8385,-11.30579 -1.1347,-1.13466 -9.1064,-6.29454 -17.7149,-11.46641 -8.6085,-5.17187 -16.4626,-10.51793 -17.4534,-11.88013 -3.0514,-4.19471 -3.385,-9.57329 -2.0268,-32.67952 1.406,-23.91959 2.3056,-28.22447 7.1191,-34.06409 5.1817,-6.28633 8.8652,-7.51044 23.9047,-7.94403 10.3023,-0.29702 14.3963,-0.0456 18.4508,1.13306 5.839,1.69743 10.4371,5.64727 12.627,10.84673 1.7075,4.05417 2.4709,17.26052 1.4376,24.87208 l -0.7635,5.625 -9.8398,0 -9.8398,0 0,-9.57775 c 0,-8.71547 -0.1923,-9.77052 -2.1355,-11.71875 -1.7829,-1.78763 -3.1334,-2.141 -8.1818,-2.141 -5.3094,0 -6.353,0.30658 -8.5616,2.51516 -2.2473,2.24741 -2.5941,3.49495 -3.257,11.71875 -0.408,5.06198 -0.7623,13.24333 -0.7874,18.1808 -0.055,10.95936 -0.93,9.95286 18.2358,20.99201 23.5945,13.59011 22.6386,11.70397 21.1408,41.71752 -0.6313,12.65041 -1.5429,24.82994 -2.0257,27.06563 -1.8427,8.53233 -6.4568,14.41806 -13.8377,17.65123 -4.7698,2.08941 -26.9654,2.67113 -33.362,0.87437 z M 545.16521,830.8568 c -3.643,-4.36176 -3.9871,-6.84971 -4.571,-33.04687 -0.5326,-23.89718 -0.7326,-26.19232 -2.7366,-31.40625 -2.1244,-5.52729 -6.388,-12.25598 -7.2314,-11.41255 -0.2361,0.23614 0.2344,3.92814 1.0456,8.20444 1.6673,8.78938 0.7742,11.655 -2.0269,6.50318 -0.9247,-1.7008 -4.0935,-6.1372 -7.0419,-9.85869 -4.3683,-5.51386 -6.6243,-7.4244 -12.1875,-10.32143 -15.2328,-7.93249 -20.4206,-12.89184 -20.4206,-19.52134 0,-1.76952 2.1856,-7.46764 5.2835,-13.77454 4.5769,-9.31814 6.3007,-11.77003 12.8906,-18.3352 8.2745,-8.24345 16.4938,-14.10696 25.6775,-18.31777 6.2973,-2.8874 9.2291,-3.14066 16.6171,-1.43547 4.3106,0.99486 5.0003,1.55767 8.5758,6.99787 7.0353,10.70429 12.5665,27.52215 14.5178,44.14203 1.1903,10.13855 0.2363,37.29091 -1.6834,47.91072 -3.0291,16.75719 -10.5615,37.36018 -17.909,48.98545 -4.1814,6.61574 -6.2625,7.72408 -8.7996,4.68642 z m 60.9526,-38.10774 c -0.7908,-1.73563 -0.6662,-3.32697 0.5465,-6.97806 1.3847,-4.16887 1.4491,-6.26445 0.5433,-17.6735 -1.3793,-17.3739 -4.5886,-27.48873 -7.8603,-24.77349 -1.5461,1.28314 -2.8752,-1.05815 -17.1165,-30.15047 -5.2419,-10.70831 -5.369,-11.14827 -4.1979,-14.53125 2.9468,-8.51304 14.6907,-22.48022 24.7806,-29.47206 4.9627,-3.43889 6.4537,-4.00293 10.5986,-4.00922 6.3823,-0.01 8.0405,1.57829 13.2082,12.64892 5.8635,12.56137 8.1548,24.97571 8.1324,44.0625 -0.02,17.13137 -2.1434,29.94163 -7.3811,44.53125 -4.6301,12.89709 -8.6156,20.54951 -12.9706,24.90461 -4.2212,4.22111 -6.8112,4.67161 -8.2832,1.44077 z m -454.5604,-24.33261 c -1.2891,-0.69132 -5.0367,-2.85126 -8.3281,-4.79988 -3.2914,-1.94862 -13.8383,-7.34775 -23.4375,-11.99805 -9.5992,-4.65031 -20.842396,-10.48497 -24.984896,-12.96593 -4.1424,-2.48096 -10.0426,-5.66035 -13.1114,-7.06533 -6.7912,-3.10911 -27.4251,-15.54538 -33.7881,-20.36446 -6.6344,-5.02463 -20.6628,-18.95245 -25.0362,-24.85664 -12.6866,-17.12756 -22.73719971,-59.29325 -21.0130997,-88.1566 0.9029,-15.11457 2.5258,-29.3077 4.0835,-35.71213 4.8085997,-19.77063 15.8503997,-36.77475 30.7276997,-47.31997 13.1039,-9.28822 22.2454,-11.97175 47.8593,-14.0494 29.784596,-2.41595 44.118496,-1.79734 75.934996,3.27714 6.7032,1.0691 15.1407,2.39583 18.75,2.9483 3.6094,0.55247 11.625,2.04209 17.8125,3.31029 6.1875,1.26819 13.4444,2.69439 16.1263,3.16932 7.7148,1.36619 9.4712,2.34918 11.0946,6.20917 2.7627,6.56918 4.9559,13.80049 7.4738,24.64265 1.377,5.92969 3.0478,13.10156 3.7128,15.9375 2.1328,9.09581 12.5142,49.06158 13.9586,53.73679 1.1212,3.62933 1.2018,5.74999 0.4099,10.78125 -0.5478,3.48003 -0.7538,11.47066 -0.4637,17.98196 0.5153,11.56326 3.145,23.04532 8.7903,38.38122 2.3054,6.26262 10.252,19.57522 15.0173,25.15781 5.1153,5.99247 5.6629,4.81108 -9.2274,19.90606 -17.4503,17.69032 -26.3817,22.87524 -56.1112,32.57413 -28.5161,9.30301 -49.688,12.79395 -56.25,9.2748 z m 577.9687,-6.54994 c -8.6786,-2.87308 -14.143,-7.63361 -17.2794,-15.05383 -2.978,-7.04504 -39.6598,-135.51339 -39.1058,-136.95722 0.4676,-1.21846 4.0003,-1.42053 24.8348,-1.42053 18.3274,0 24.5102,0.28765 25.1883,1.17187 0.7987,1.04166 19.7855,70.64231 21.3517,78.2705 0.3429,1.66988 1.0001,3.2689 1.4605,3.55342 0.4603,0.2845 2.7059,-3.19113 4.9902,-7.72363 2.2843,-4.5325 11.1634,-21.31006 19.7312,-37.28346 20.8562,-38.88325 22.376,-40.34925 41.7973,-40.31519 8.3644,0.0146 10.5113,0.34347 14.2863,2.1879 8.2882,4.04961 9.7229,6.39285 44.2815,72.32609 3.108,5.92969 6.046,10.78125 6.5288,10.78125 0.4829,0 1.2386,-1.47656 1.6792,-3.28125 3.998,-16.37207 20.8204,-77.60785 21.5737,-78.53145 0.7454,-0.91381 6.3984,-1.13001 24.5128,-0.9375 l 23.5439,0.2502 0.2882,2.49078 c 0.3572,3.08652 -36.4119,128.60837 -39.8365,135.99349 -4.9907,10.76225 -12.672,15.25625 -26.0767,15.25625 -10.1707,0 -15.2287,-1.9529 -21.2996,-8.2237 -3.7924,-3.91743 -25.1036,-40.55384 -43.0491,-74.00653 -3.7957,-7.07559 -7.4233,-12.87637 -8.0613,-12.89063 -0.6381,-0.0143 -2.6868,3.03268 -4.5527,6.77096 -1.866,3.73829 -12.1003,22.33394 -22.7431,41.32366 -20.5096,36.59502 -23.9191,41.40644 -31.8388,44.93035 -5.4382,2.41971 -16.8345,3.09624 -22.2054,1.3182 z m 238.7813,-2.68158 c -1.7606,-1.76061 -1.6149,-148.23878 0.1489,-149.70262 0.9297,-0.77161 24.6708,-0.99256 87.89059,-0.81791 l 86.6167,0.23928 0.2809,1.96688 c 0.1923,1.34595 -4.1668,7.76169 -13.8079,20.32281 -7.7489,10.09577 -14.6252,18.70286 -15.2809,19.12688 -0.6556,0.42401 -22.2858,0.98187 -48.0671,1.23968 l -46.875,0.46875 0,6.09375 0,6.09375 57.8907,0.24153 57.8906,0.24153 0,2.40827 c 0,1.66927 -3.9191,7.41803 -12.7717,18.73392 l -12.7716,16.32563 -45.119,0.24331 -45.119,0.24331 0,7.5 0,7.5 61.5315,0.24108 c 66.7013,0.26134 65.238,0.14235 62.5968,5.08962 -0.6369,1.19311 -7.2735,10.07946 -14.7479,19.74742 l -13.5898,17.57813 -72.7859,0 c -55.36119,0 -73.05519,-0.26933 -73.91089,-1.125 z m 192.18749,0 c -1.7606,-1.76061 -1.6149,-148.23878 0.1489,-149.70262 0.9297,-0.77161 24.6708,-0.99256 87.8906,-0.81791 l 86.6167,0.23928 0.2809,1.96688 c 0.1923,1.34595 -4.1668,7.76169 -13.8079,20.32281 -7.7489,10.09577 -14.6252,18.70286 -15.2809,19.12688 -0.6556,0.42401 -22.2858,0.98187 -48.0671,1.23968 l -46.875,0.46875 0,6.09375 0,6.09375 57.8907,0.24153 57.8906,0.24153 0,2.40827 c 0,1.66927 -3.9191,7.41803 -12.7717,18.73392 l -12.7716,16.32563 -45.119,0.24331 -45.119,0.24331 0,7.5 0,7.5 61.5315,0.24108 c 66.7013,0.26134 65.238,0.14235 62.5968,5.08962 -0.6369,1.19311 -7.2735,10.07946 -14.7479,19.74742 l -13.5898,17.57813 -72.7859,0 c -55.3612,0 -73.0552,-0.26933 -73.9109,-1.125 z m 192.2027,0.0152 c -1.7861,-1.78609 -1.6422,-148.24395 0.1471,-149.72894 0.908,-0.75359 8.4349,-0.99458 25.5469,-0.81792 l 24.2596,0.25042 0.2378,25.78125 c 0.1308,14.17969 0.4487,26.34692 0.7064,27.03829 0.3112,0.83495 3.0644,-1.07503 8.1997,-5.68835 4.2521,-3.81996 15.9576,-13.86575 26.0123,-22.32397 10.0547,-8.45821 20.9237,-17.60549 24.1533,-20.32727 l 5.8719,-4.9487 34.5747,0 c 35.5501,0 36.2279,0.0694 35.0056,3.58175 -0.4185,1.20243 -66.9585,51.54441 -82.4961,62.41374 -4.2539,2.97582 -7.706,5.69188 -7.6713,6.03567 0.035,0.3438 4.3589,3.74399 9.6094,7.55599 5.2505,3.81199 26.7546,20.67584 47.7872,37.47521 30.2011,24.12273 38.1836,30.94374 37.9687,32.44411 -0.2673,1.86555 -0.9227,1.9042 -36.379,2.14495 l -36.107,0.24519 -32.7588,-28.59818 c -18.0173,-15.729 -33.087,-28.27007 -33.4879,-27.86904 -0.4011,0.40104 -0.8412,13.15989 -0.9781,28.353 l -0.2488,27.62386 -24.4067,0.24954 c -18.1969,0.18606 -24.6969,-0.0406 -25.5469,-0.89062 z M 275.95011,705.70056 c -8.2283,-10.14134 -14.0822,-21.48078 -18.7541,-36.32812 -4.2067,-13.36896 -5.31,-20.20321 -5.319,-32.94812 -0.014,-20.12235 6.5044,-31.54927 18.9728,-33.25825 8.4173,-1.15373 13.0812,2.14313 20.3044,14.35294 4.0819,6.89985 12.9633,30.82854 16.1144,43.41593 2.7232,10.87828 4.9347,25.7314 4.2421,28.49099 -0.4693,1.86979 -1.8739,3.04313 -5.6332,4.70568 -5.5533,2.4559 -17.9862,10.65051 -20.687,13.6349 -2.7566,3.04597 -5.6104,2.40792 -9.2404,-2.06595 z m 39.8573,-14.95312 c -0.6188,-0.61875 -1.125,-2.52173 -1.125,-4.22885 0,-4.32572 -2.6277,-20.32379 -4.3561,-26.52115 -3.1166,-11.1748 -10.942,-33.45871 -13.6412,-38.84516 -4.0386,-8.05903 -11.5067,-17.8645 -15.3197,-20.11419 -3.053,-1.80132 -3.2451,-2.20877 -3.2393,-6.8684 0,-2.72442 -1.2346,-17.82069 -2.7511,-33.54725 -5.1991,-53.91524 -5.1142,-51.91265 -2.4596,-57.99303 3.5549,-8.14273 4.5362,-12.96626 4.5736,-22.48069 l 0.034,-8.75497 2.8649,0.57299 c 1.5757,0.31514 6.4039,2.56737 10.7292,5.00497 12.1373,6.84007 28.5215,23.56321 41.4541,42.31177 4.0703,5.90077 4.9321,7.41944 12.7001,22.38064 2.1288,4.10005 4.9172,9.3047 6.1964,11.56586 2.4002,4.2426 5.0497,10.61648 10.0108,24.08256 8.7579,23.77202 17.0521,65.10348 16.8542,83.98723 -0.186,17.74643 -1.1875,28.69309 -2.7132,29.65622 -2.1919,1.38372 -58.4162,1.18768 -59.8125,-0.20855 z m -64.6944,-79.78426 c -1.0629,-3.81072 -7.6533,-30.76442 -12.4233,-50.80949 -6.2737,-26.36347 -7.3447,-30.24319 -10.2232,-37.03125 -1.6399,-3.86719 -4.1784,-10.40625 -5.6413,-14.53125 -9.8683,-27.82777 -35.2714,-72.83959 -49.7345,-88.125 -2.9273,-3.09375 -8.0206,-9.03457 -11.3185,-13.20181 -3.2978,-4.16724 -8.6956,-10.68462 -11.995,-14.48306 -3.2994,-3.79844 -8.4322,-10.61201 -11.4063,-15.14128 -7.6139,-11.59535 -8.2968,-16.28297 -2.7092,-18.5974 3.1652,-1.31107 5.732,-1.02325 21.7445,2.4382 17.1349,3.70409 34.7206,12.50472 47.3584,23.70021 9.3291,8.26434 23.7064,25.12941 31.3846,36.81531 6.9515,10.57971 17.6267,32.04948 21.8129,43.86947 1.9482,5.50116 4.333,14.78661 7.0002,27.25661 1.437,6.7184 3.6171,25.88579 5.6516,49.6875 1.0357,12.11719 2.2746,25.61719 2.7532,30 0.4786,4.38281 1.0055,11.95633 1.1709,16.83004 l 0.3007,8.86128 -4.1864,1.21579 c -3.3456,0.97165 -4.4041,0.98067 -5.2711,0.045 -1.4372,-1.5511 -4.6219,-14.71306 -6.5215,-26.95207 -6.7654,-43.59016 -15.1593,-76.56015 -23.0518,-90.54504 -4.9573,-8.78385 -6.3333,-7.903 -1.6817,1.07658 1.5847,3.05921 4.3278,9.51739 6.0958,14.3515 3.2996,9.02211 10.4505,39.5766 12.9726,55.42946 0.7793,4.89843 1.837,10.59375 2.3504,12.65625 0.5134,2.0625 1.8395,9.23437 2.9467,15.9375 1.1073,6.70312 2.4694,13.94766 3.0269,16.09898 0.9719,3.75026 0.8809,4.06189 -2.2081,7.56099 -1.772,2.00722 -4.1176,4.88768 -5.2125,6.40101 l -1.9906,2.75152 -0.9944,-3.56551 z m 525.7569,-64.95058 c -1.8047,-0.20989 -7.2891,-0.82993 -12.1875,-1.37788 -36.0892,-4.03699 -60.9438,-17.88526 -71.3732,-39.76695 -6.0263,-12.64374 -6.9081,-17.37379 -6.9081,-37.05783 0,-15.32103 0.2519,-18.21352 2.1593,-24.8015 3.4112,-11.78212 8.0148,-19.69456 16.2191,-27.87681 6.1532,-6.13659 8.8117,-7.98056 17.8629,-12.39005 19.6191,-9.55789 39.11,-13.06247 72.9775,-13.1218 28.9101,-0.0506 44.5014,1.99199 62.9606,8.24851 24.6461,8.35351 39.7636,23.55759 45.972,46.23535 2.8922,10.56469 2.9124,36.77888 0.037,47.27097 -8.2388,30.05506 -30.5626,46.31746 -72.5213,52.82995 -9.2778,1.44005 -47.5753,2.69451 -55.1975,1.80804 z m 53.5604,-44.77107 c 12.6713,-2.87806 20.6284,-9.05882 23.8664,-18.53835 2.3931,-7.00563 2.3931,-22.78085 0,-29.78648 -3.342,-9.78387 -11.314,-15.77468 -24.7856,-18.62566 -9.3545,-1.97968 -54.412,-2.27839 -64.197,-0.42559 -9.8681,1.86853 -16.0808,4.57457 -20.6111,8.97757 -5.2357,5.08841 -7.2552,10.76426 -7.8829,22.15507 -1.3051,23.68094 8.0885,34.34469 33.0185,37.48326 10.4054,1.30998 53.223,0.43385 60.5917,-1.23982 z m 659.13669,44.3204 c -1.6963,-0.52247 -4.2586,-1.67181 -5.694,-2.55409 -1.4353,-0.88228 -22.1959,-19.18852 -46.1346,-40.68052 -23.9386,-21.492 -43.9466,-39.10558 -44.4623,-39.14128 -0.6045,-0.0419 -1.1039,14.16655 -1.4062,40.01387 l -0.4688,40.07878 -22.9687,0 -22.9688,0 0,-67.5 0,-67.5 2.1471,-4.31374 c 2.827,-5.67971 7.1892,-10.06105 12.3842,-12.43858 5.9783,-2.73604 18.4617,-2.71934 24.375,0.0326 2.6861,1.25008 20.375,16.48376 48.6905,41.93234 24.4594,21.98293 44.8102,39.63041 45.224,39.21663 0.4138,-0.4138 0.8625,-18.6656 0.9971,-40.55956 l 0.2447,-39.80721 22.9687,0 22.9688,0 0,67.03125 0,67.03125 -2.4388,5.15625 c -4.6737,9.88126 -11.2586,14.02142 -23.2279,14.60408 -3.9302,0.19132 -8.5337,-0.0796 -10.23,-0.60209 z m -559.24439,-2.42426 c -0.3521,-0.35212 -0.6402,-17.78241 -0.6402,-38.73398 0,-28.37848 0.2869,-38.38066 1.125,-39.21875 0.8535,-0.85348 16.9747,-1.12627 66.7969,-1.13023 44.56379,-0.004 66.87719,-0.33446 69.42179,-1.02956 14.4569,-3.94897 16.8402,-19.81588 3.9163,-26.07224 -3.9794,-1.92638 -5.0364,-1.95547 -71.05599,-1.95547 -69.3278,0 -69.2813,0.003 -69.2569,-3.70312 0.01,-0.79922 6.6814,-9.89063 14.836,-20.20313 l 14.8266,-18.75 57.11699,0 c 56.382,0 57.2256,0.0275 65.5545,2.1396 19.7265,5.00229 34.4281,15.29178 41.5087,29.0513 4.6946,9.12316 6.1604,15.33031 6.1388,25.9966 -0.058,28.42508 -16.8307,46.54365 -50.4797,54.52968 -5.4344,1.28978 -14.4035,1.6464 -52.949,2.10531 l -46.40629,0.55251 -0.4687,18.28125 -0.4688,18.28125 -24.4379,0.24961 c -13.4408,0.13728 -24.726,-0.0385 -25.0781,-0.39063 z m 223.60979,-0.51523 c -1.7606,-1.76061 -1.6149,-148.23878 0.1489,-149.70261 0.9297,-0.77163 24.6708,-0.99256 87.8906,-0.81792 l 86.6167,0.23928 0.2809,1.96688 c 0.1923,1.34595 -4.1668,7.76169 -13.8079,20.32281 -7.7489,10.09577 -14.6252,18.70286 -15.2809,19.12688 -0.6556,0.42401 -22.2858,0.98187 -48.0671,1.23968 l -46.875,0.46875 0,6.09375 0,6.09375 57.8907,0.24153 57.8906,0.24153 0,2.40827 c 0,1.66927 -3.9191,7.41803 -12.7717,18.73392 l -12.7716,16.32563 -45.119,0.24331 -45.119,0.24331 0,7.5 0,7.5 61.5315,0.24108 c 66.7013,0.26134 65.238,0.14235 62.5968,5.08962 -0.6369,1.19311 -7.2735,10.07946 -14.7479,19.74742 l -13.5898,17.57813 -72.7859,0 c -55.3612,0 -73.0552,-0.26933 -73.9109,-1.125 z M 211.55741,510.88302 c -2.3203,-0.42289 -8.8594,-1.85072 -14.5313,-3.17296 -5.6718,-1.32224 -15.375,-3.06812 -21.5625,-3.87972 -6.1875,-0.8116 -17.1562,-2.50982 -24.375,-3.7738 -18.2459,-3.19483 -40.3274,-3.83451 -64.891996,-1.87985 -10.425,0.82954 -19.8117,1.50825 -20.8594,1.50825 -3.5951,0 -1.7747,-5.09252 5.0026,-13.99455 9.6147,-12.62895 27.2808,-18.58246 46.136796,-15.54822 4.8358,0.77815 12.4278,2.46835 16.8712,3.756 4.4434,1.28765 14.0497,3.60521 21.3474,5.15014 7.2976,1.54492 19.8075,4.30379 27.7997,6.13081 7.9922,1.82703 17.7913,3.57975 21.7759,3.89493 4.9107,0.38845 7.6674,1.05735 8.5569,2.07635 1.3336,1.52752 8.1047,18.05153 8.1047,19.77828 0,1.0804 -3.2843,1.06441 -9.375,-0.0457 z m 57.77,-10.43554 c -0.1879,-0.67721 -1.2662,-5.45004 -2.3961,-10.60629 -1.13,-5.15625 -2.5305,-11.38258 -3.1123,-13.8363 -1.5366,-6.48069 -0.1569,-7.3625 5.2735,-3.3706 5.0376,3.70309 5.6172,5.04992 5.3883,12.5194 -0.2675,8.73045 -3.9456,19.64583 -5.1534,15.29379 z m -68.0825,-14.49489 c -7.4322,-1.11623 -14.9066,-2.59595 -25.3125,-5.01109 -6.4453,-1.49593 -18.4688,-4.18641 -26.7188,-5.97885 -14.6692,-3.18712 -20.1562,-4.74258 -20.1562,-5.71384 0,-0.78987 16.9278,-9.05326 22.5,-10.98349 8.6128,-2.98351 21.5284,-5.53174 30.9451,-6.10543 10.4112,-0.63428 9.4266,-1.29551 16.1835,10.86828 6.7605,12.1701 11.1426,21.59923 10.5122,22.61922 -0.5538,0.89617 -3.3134,1.00207 -7.9533,0.3052 z"
       id="path4181"
       inkscape:connector-curvature="0"
       sodipodi:nodetypes="cccccccccccccccccccsssssscsccscscsccscscsssssccscccscccscccscsccccscssccccsccsccccccssccccccccccccccccsscsccccccssccccscscccsccscsssssccscscscccscccscsscccscccscscccccssccccccscsscscscsccsssccsssccccssssscsscsscscscscssssscsssccscscscccsssscssccsssscsssssssccssscccsccssssssscscscsssccccccscscsscccscccsccccsccccccccsccsscccscccscccccccssccssccsssscssccscscscssccsscssssscscssssccccsscsssccscccsccccssssscsscccccssscsscscsscccsccssscsssssccccccccccccccssccccsccsccsccccscccccccccscccccccscsccscccscscssscscsssccccsccccccccccsccsscccccscccccccscsccscccccssccscssssccscssssccscccsssccssscscssccssssccscccccscccscsssssccccscscscsscsccssscsccssssscssssscsssscscsssccsssssssssssssssccscccssssssccscccssssssccsccsscsccssscssccscscccccsscccccscscsccssccscscccccsscccccscscsccsscscssscscscsscscscscsccsscssscssscsscscssccsssssssccccsscscsssssscsssscccssssssccscccccssssssssscsccsccsscsssccscscccccsssscscccccsscccssccsscscssccsscccscccsccscscccccsscccccscscsccssssssssssscsccccssscssssssscs" />
  </g>
</svg>
